<svg width="44" height="13" fill="none" xmlns="http://www.w3.org/2000/svg"><path d="M10.064 5.096c-.368-1.328-1.376-2.144-2.768-2.144-1.84 0-3.2 1.44-3.2 3.872 0 2.416 1.344 3.856 3.2 3.856 1.392 0 2.368-.656 2.8-2.144l-1.04-.32c-.256 1.088-.88 1.536-1.744 1.536-1.136 0-2.048-1.024-2.048-2.944 0-1.904.896-2.928 2.048-2.928.832 0 1.408.528 1.664 1.488l1.088-.272zM7.088.728C3.712.728.992 3.464.992 6.84a6.084 6.084 0 006.096 6.096c3.376 0 6.112-2.72 6.112-6.096A6.111 6.111 0 007.088.728zm0 .592c3.072 0 5.504 2.448 5.504 5.52 0 3.088-2.432 5.504-5.504 5.504C4 12.344 1.6 9.928 1.6 6.84c0-3.072 2.4-5.52 5.488-5.52zm10.235.384l-1.28.288v2.544h-1.327v1.008h1.328v5.28c0 1.408.735 2.08 2.111 2.08.448 0 .816-.016 1.264-.08l.064-1.008a4.52 4.52 0 01-1.024.096c-.735 0-1.136-.416-1.136-1.328v-5.04h1.953V4.536h-1.953V1.704zm6.954 2.656c-2.08 0-3.52 1.664-3.52 4.304 0 2.624 1.424 4.256 3.504 4.256s3.52-1.664 3.52-4.304c0-2.64-1.456-4.256-3.504-4.256zm0 1.008c1.36 0 2.176 1.168 2.176 3.264 0 2.128-.832 3.28-2.192 3.28-1.36 0-2.176-1.168-2.176-3.28 0-2.096.816-3.264 2.192-3.264zM43.473.92H42.16v7.808c0 2.144-1.136 3.056-2.912 3.056s-2.912-.912-2.912-3.056V.92h-1.392v7.856c0 2.864 1.808 4.16 4.272 4.16 2.448 0 4.256-1.328 4.256-4.16V.92z" fill="#fff"/></svg>