<svg width="44" height="13" viewBox="0 0 44 13" fill="none" xmlns="http://www.w3.org/2000/svg">
<path d="M10.064 5.096C9.696 3.768 8.688 2.952 7.296 2.952C5.456 2.952 4.096 4.392 4.096 6.824C4.096 9.24 5.44 10.68 7.296 10.68C8.688 10.68 9.664 10.024 10.096 8.536L9.056 8.216C8.8 9.304 8.176 9.752 7.312 9.752C6.176 9.752 5.264 8.728 5.264 6.808C5.264 4.904 6.16 3.88 7.312 3.88C8.144 3.88 8.72 4.408 8.976 5.368L10.064 5.096ZM7.088 0.728C3.712 0.728 0.992 3.464 0.992 6.84C0.992 10.216 3.712 12.936 7.088 12.936C10.464 12.936 13.2 10.216 13.2 6.84C13.2 3.464 10.464 0.728 7.088 0.728ZM7.088 1.32C10.16 1.32 12.592 3.768 12.592 6.84C12.592 9.928 10.16 12.344 7.088 12.344C4 12.344 1.6 9.928 1.6 6.84C1.6 3.768 4 1.32 7.088 1.32ZM17.3235 1.704L16.0435 1.992V4.536H14.7155V5.544H16.0435V10.824C16.0435 12.232 16.7795 12.904 18.1555 12.904C18.6035 12.904 18.9715 12.888 19.4195 12.824L19.4835 11.816C19.1155 11.896 18.8115 11.912 18.4595 11.912C17.7235 11.912 17.3235 11.496 17.3235 10.584V5.544H19.2755V4.536H17.3235V1.704ZM24.2769 4.36C22.1969 4.36 20.7569 6.024 20.7569 8.664C20.7569 11.288 22.1809 12.92 24.2609 12.92C26.3409 12.92 27.7809 11.256 27.7809 8.616C27.7809 5.976 26.3249 4.36 24.2769 4.36ZM24.2769 5.368C25.6369 5.368 26.4529 6.536 26.4529 8.632C26.4529 10.76 25.6209 11.912 24.2609 11.912C22.9009 11.912 22.0849 10.744 22.0849 8.632C22.0849 6.536 22.9009 5.368 24.2769 5.368ZM43.4729 0.919999H42.1609V8.728C42.1609 10.872 41.0249 11.784 39.2489 11.784C37.4729 11.784 36.3369 10.872 36.3369 8.728V0.919999H34.9449V8.776C34.9449 11.64 36.7529 12.936 39.2169 12.936C41.6649 12.936 43.4729 11.608 43.4729 8.776V0.919999Z" fill="white"/>
</svg>
